<?xml version="1.0" standalone="no"?>
<!DOCTYPE svg PUBLIC "-//W3C//DTD SVG 20010904//EN"
 "http://www.w3.org/TR/2001/REC-SVG-20010904/DTD/svg10.dtd">
<svg version="1.0" xmlns="http://www.w3.org/2000/svg"
 width="456.000000pt" height="456.000000pt" viewBox="0 0 456.000000 456.000000"
 preserveAspectRatio="xMidYMid meet">
<metadata>
Created by potrace 1.11, written by Peter Selinger 2001-2013
</metadata>
<g transform="translate(0.000000,456.000000) scale(0.100000,-0.100000)"
fill="#000000" stroke="none">
<path d="M2115 4544 c-211 -22 -359 -51 -517 -101 -662 -209 -1184 -696 -1442
-1343 -53 -136 -107 -339 -132 -500 -25 -160 -25 -492 -1 -650 88 -562 368
-1063 788 -1412 631 -524 1466 -675 2239 -406 789 275 1373 982 1494 1809 22
145 22 522 1 668 -144 985 -923 1761 -1925 1916 -101 15 -422 27 -505 19z
m375 -55 c600 -54 1168 -359 1543 -829 288 -359 455 -797 483 -1265 l7 -110
-1107 3 -1106 2 0 1105 0 1105 33 0 c17 0 84 -5 147 -11z m-230 -3344 l0
-1095 -38 0 c-63 0 -251 20 -341 36 -893 163 -1609 864 -1785 1747 -23 115
-46 300 -46 374 l0 33 1105 0 1105 0 0 -1095z"/>
</g>
</svg>
